<svg xmlns="http://www.w3.org/2000/svg" viewBox="0 0 720 360" width="720" height="360"><rect width="720" height="360" rx="20" fill="#e8eefb"/><rect x="16" y="16" width="310" height="328" rx="16" fill="#fff"/><rect x="394" y="16" width="310" height="328" rx="16" fill="#fff"/><g transform="translate(17 10)"><path d="M45 292H285" fill="none" stroke="#8b98ad" stroke-width="6" stroke-linecap="round" stroke-linejoin="round"/><circle cx="91" cy="194" r="15" fill="#e8eefb" stroke="#203455" stroke-width="5"/><path d="M108 207L194 232" fill="none" stroke="#2456d2" stroke-width="17" stroke-linecap="round" stroke-linejoin="round"/><path d="M112 211L110 282H72 M194 232L264 276L265 286" fill="none" stroke="#203455" stroke-width="8" stroke-linecap="round" stroke-linejoin="round"/></g><g transform="translate(393 10)"><path d="M45 292H285" fill="none" stroke="#8b98ad" stroke-width="6" stroke-linecap="round" stroke-linejoin="round"/><circle cx="91" cy="194" r="15" fill="#e8eefb" stroke="#203455" stroke-width="5"/><path d="M108 207L194 232" fill="none" stroke="#2456d2" stroke-width="17" stroke-linecap="round" stroke-linejoin="round"/><path d="M112 211L110 282H72 M194 232L264 276L265 286" fill="none" stroke="#203455" stroke-width="8" stroke-linecap="round" stroke-linejoin="round"/></g><circle cx="360" cy="177" r="15" fill="none" stroke="#2456d2" stroke-width="3"/><path d="M355 170v14 M365 170v14" stroke="#2456d2" stroke-width="3"/></svg>
