<svg xmlns="http://www.w3.org/2000/svg" viewBox="0 0 720 360" width="720" height="360"><rect width="720" height="360" rx="20" fill="#e8eefb"/><rect x="16" y="16" width="310" height="328" rx="16" fill="#fff"/><rect x="394" y="16" width="310" height="328" rx="16" fill="#fff"/><g transform="translate(17 10)"><circle cx="160" cy="79" r="15" fill="#e8eefb" stroke="#203455" stroke-width="5"/><path d="M160 101V190" fill="none" stroke="#2456d2" stroke-width="17" stroke-linecap="round" stroke-linejoin="round"/><path d="M160 190L140 285H122 M160 190L181 285H199 M160 120L171 208" fill="none" stroke="#203455" stroke-width="8" stroke-linecap="round" stroke-linejoin="round"/><path d="M131 208h80 M141 195v26 M201 195v26" fill="none" stroke="#2456d2" stroke-width="6" stroke-linecap="round" stroke-linejoin="round"/></g><g transform="translate(393 10)"><circle cx="224" cy="136" r="15" fill="#e8eefb" stroke="#203455" stroke-width="5"/><path d="M205 151L139 190" fill="none" stroke="#2456d2" stroke-width="17" stroke-linecap="round" stroke-linejoin="round"/><path d="M139 190L153 238L142 285H164 M196 160L211 246" fill="none" stroke="#203455" stroke-width="8" stroke-linecap="round" stroke-linejoin="round"/><path d="M171 246h80 M181 233v26 M241 233v26" fill="none" stroke="#2456d2" stroke-width="6" stroke-linecap="round" stroke-linejoin="round"/></g><path d="M341 177H379 M370 168L379 177L370 186" fill="none" stroke="#2456d2" stroke-width="3" stroke-linecap="round" stroke-linejoin="round"/></svg>
